<svg width="24" height="24" viewBox="0 0 24 24" fill="none" xmlns="http://www.w3.org/2000/svg">
<path d="M12 18L12.0001 17.5C11.959 17.5 11.9185 17.4898 11.8823 17.4702L11.8815 17.4698L2.57185 12.4569L2.80864 12.0173L11.763 16.8383L12 16.9659L12.237 16.8383L21.1914 12.0173L21.4282 12.4569L12.1185 17.4698L12.1177 17.4702C12.0815 17.4898 12.041 17.5 11.9999 17.5L12 18ZM12 18C11.8759 18 11.7537 17.9691 11.6445 17.91L2.33474 12.8971L21.6653 12.8971L12.3555 17.91C12.2463 17.9691 12.1241 18 12 18ZM21.3967 11.344L21.8684 12.2198L21.3967 11.344ZM2.13161 12.2198L2.60547 11.3401L2.13161 12.2198Z" fill="black" stroke="#4B5563"/>
<path d="M12 22.5L12.0001 22C11.959 22 11.9185 21.9897 11.8823 21.9702L11.8816 21.9698L2.57185 16.9568L2.80864 16.5172L11.763 21.3382L12 21.4659L12.237 21.3382L21.1914 16.5172L21.4282 16.9568L12.1185 21.9698L12.1177 21.9702C12.0815 21.9897 12.041 22 11.9999 22L12 22.5ZM12 22.5C12.1241 22.5 12.2463 22.469 12.3555 22.41L21.6653 17.397L11.6445 22.41C11.7537 22.469 11.8759 22.5 12 22.5ZM11.8823 12.9702L11.8816 12.9698L2.13199 7.71999C2.13194 7.71997 2.13189 7.71994 2.13183 7.71991C2.09221 7.69849 2.05912 7.66676 2.03604 7.62808C2.01293 7.58935 2.00073 7.54509 2.00073 7.49999C2.00073 7.45489 2.01293 7.41063 2.03604 7.3719C2.05911 7.33323 2.09221 7.30151 2.13182 7.28009C2.13188 7.28005 2.13193 7.28002 2.13199 7.27999L11.8816 2.03023L11.882 2.03C11.9182 2.01043 11.9588 2.00018 12 2.00018C12.0412 2.00018 12.0818 2.01043 12.118 2.03L12.1185 2.03023L21.868 7.27999C21.8681 7.28003 21.8681 7.28006 21.8682 7.2801C21.9078 7.30152 21.9409 7.33324 21.964 7.3719C21.9871 7.41064 21.9993 7.4549 21.9993 7.49999C21.9993 7.54509 21.9871 7.58935 21.964 7.62808C21.9409 7.66675 21.9078 7.69847 21.8682 7.71989C21.8681 7.71992 21.8681 7.71996 21.868 7.71999L12.1185 12.9698L12.1177 12.9702C12.0815 12.9897 12.041 13 11.9999 13L12 13.5L12.0001 13C11.959 13 11.9185 12.9897 11.8823 12.9702ZM3.59545 7.05976L2.77789 7.49999L3.59545 7.94023L11.7629 12.3382L12 12.4659L12.2371 12.3382L20.4046 7.94023L21.2221 7.49999L20.4046 7.05976L12.2371 2.66176L12 2.53411L11.7629 2.66176L3.59545 7.05976Z" fill="black" stroke="#4B5563"/>
</svg>
