<svg width="55" height="55" viewBox="0 0 55 55" fill="none" xmlns="http://www.w3.org/2000/svg">
<circle cx="27.5" cy="27.5" r="27.5" fill="#D398E7"/>
<path fill-rule="evenodd" clip-rule="evenodd" d="M16.4 36.15C16.4 35.7358 16.7358 35.4 17.15 35.4H35.15C35.5642 35.4 35.9 35.7358 35.9 36.15C35.9 36.5642 35.5642 36.9 35.15 36.9H17.15C16.7358 36.9 16.4 36.5642 16.4 36.15Z" fill="white"/>
<path fill-rule="evenodd" clip-rule="evenodd" d="M16.4 23.5309C16.4 22.5666 17.1858 21.7809 18.15 21.7809H19.75C20.7142 21.7809 21.5 22.5666 21.5 23.5309V32.1508C21.5 33.1151 20.7142 33.9008 19.75 33.9008H18.15C17.1858 33.9008 16.4 33.1151 16.4 32.1508V23.5309ZM18.15 23.2809C18.0142 23.2809 17.9 23.3951 17.9 23.5309V32.1508C17.9 32.2866 18.0142 32.4008 18.15 32.4008H19.75C19.8858 32.4008 20 32.2866 20 32.1508V23.5309C20 23.3951 19.8858 23.2809 19.75 23.2809H18.15Z" fill="white"/>
<path fill-rule="evenodd" clip-rule="evenodd" d="M23.5992 20.3394C23.5992 19.3752 24.385 18.5894 25.3492 18.5894H26.9492C27.9134 18.5894 28.6992 19.3752 28.6992 20.3394V32.1494C28.6992 33.1137 27.9134 33.8994 26.9492 33.8994H25.3492C24.385 33.8994 23.5992 33.1137 23.5992 32.1494V20.3394ZM25.3492 20.0894C25.2135 20.0894 25.0992 20.2037 25.0992 20.3394V32.1494C25.0992 32.2852 25.2135 32.3994 25.3492 32.3994H26.9492C27.085 32.3994 27.1992 32.2852 27.1992 32.1494V20.3394C27.1992 20.2037 27.085 20.0894 26.9492 20.0894H25.3492Z" fill="white"/>
<path fill-rule="evenodd" clip-rule="evenodd" d="M30.7985 17.15C30.7985 16.1858 31.5842 15.4 32.5485 15.4H34.1484C35.1127 15.4 35.8984 16.1858 35.8984 17.15V32.15C35.8984 33.1142 35.1127 33.9 34.1484 33.9H32.5485C31.5842 33.9 30.7985 33.1142 30.7985 32.15V17.15ZM32.5485 16.9C32.4127 16.9 32.2985 17.0142 32.2985 17.15V32.15C32.2985 32.2858 32.4127 32.4 32.5485 32.4H34.1484C34.2842 32.4 34.3984 32.2858 34.3984 32.15V17.15C34.3984 17.0142 34.2842 16.9 34.1484 16.9H32.5485Z" fill="white"/>
</svg>
