<svg width="55" height="55" viewBox="0 0 55 55" fill="none" xmlns="http://www.w3.org/2000/svg">
<circle cx="27.5" cy="27.5" r="27.5" fill="#E89271"/>
<path fill-rule="evenodd" clip-rule="evenodd" d="M18.3736 22.8172C19.259 21.7646 20.777 21.25 23 21.25H33C35.2231 21.25 36.7411 21.7646 37.6265 22.8172C38.5033 23.8597 38.5867 25.2292 38.4462 26.5061L37.6958 34.5099C37.5857 35.538 37.3276 36.6651 36.4096 37.5037C35.4985 38.3361 34.0869 38.75 32 38.75H24C21.9132 38.75 20.5016 38.3361 19.5904 37.5037C18.6725 36.6651 18.4145 35.538 18.3043 34.5099L18.3032 34.5L17.5539 26.5061C17.4134 25.2292 17.4968 23.8597 18.3736 22.8172ZM19.5215 23.7828C19.0498 24.3436 18.917 25.1863 19.0455 26.3475L19.0469 26.36L19.7963 34.3549C19.8963 35.2843 20.1034 35.9407 20.6021 36.3963C21.1085 36.8589 22.0669 37.25 24 37.25H32C33.9332 37.25 34.8916 36.8589 35.3979 36.3963C35.8966 35.9407 36.1037 35.2843 36.2038 34.3549L36.9545 26.3475C37.083 25.1863 36.9503 24.3436 36.4786 23.7828C36.014 23.2304 35.047 22.75 33 22.75H23C20.9531 22.75 19.9861 23.2304 19.5215 23.7828Z" fill="white"/>
<path fill-rule="evenodd" clip-rule="evenodd" d="M24.7937 20.0504C24.7512 20.3758 24.75 20.7455 24.75 21.2V22C24.75 22.4142 24.4142 22.75 24 22.75C23.5858 22.75 23.25 22.4142 23.25 22L23.25 21.174C23.25 20.7505 23.25 20.2879 23.3063 19.8562C23.3647 19.4089 23.4899 18.934 23.783 18.5098C24.3998 17.6175 25.5295 17.25 27.2 17.25H28.8C30.4705 17.25 31.6002 17.6175 32.217 18.5098C32.5101 18.934 32.6353 19.4089 32.6937 19.8562C32.7501 20.2879 32.75 20.7505 32.75 21.174L32.75 22C32.75 22.4142 32.4142 22.75 32 22.75C31.5858 22.75 31.25 22.4142 31.25 22V21.2C31.25 20.7455 31.2488 20.3758 31.2063 20.0504C31.1647 19.7317 31.0899 19.5172 30.983 19.3627C30.7998 19.0975 30.3295 18.75 28.8 18.75H27.2C25.6705 18.75 25.2002 19.0975 25.017 19.3627C24.9102 19.5172 24.8353 19.7317 24.7937 20.0504Z" fill="white"/>
<path fill-rule="evenodd" clip-rule="evenodd" d="M26.7508 28.7508C26.75 28.8222 26.75 28.9036 26.75 29V30.03C26.75 30.3115 26.7525 30.5186 26.7769 30.6943C26.8004 30.8632 26.8378 30.9454 26.8694 30.9901C26.9047 31.0399 27.0806 31.25 28 31.25C28.9236 31.25 29.0974 31.0378 29.1319 30.9885C29.1638 30.9431 29.201 30.8596 29.2241 30.6887C29.2482 30.511 29.25 30.3029 29.25 30.02V29C29.25 28.9036 29.25 28.8222 29.2492 28.7508C29.1778 28.75 29.0965 28.75 29 28.75H27C26.9036 28.75 26.8222 28.75 26.7508 28.7508ZM26.9672 27.25C26.9781 27.25 26.9891 27.25 27 27.25H29C29.0109 27.25 29.0219 27.25 29.0329 27.25C29.254 27.25 29.4781 27.2499 29.661 27.2702C29.8474 27.2909 30.157 27.3463 30.4053 27.5947C30.6537 27.843 30.7091 28.1527 30.7298 28.3391C30.7501 28.5219 30.7501 28.746 30.75 28.9672C30.75 28.9781 30.75 28.9891 30.75 29V30.0312C30.75 30.291 30.75 30.5983 30.7106 30.8898C30.6696 31.1923 30.58 31.5357 30.3606 31.849C29.8926 32.5172 29.0664 32.75 28 32.75C26.9394 32.75 26.1153 32.5202 25.6456 31.8575C25.4248 31.5458 25.3333 31.2037 25.2912 30.901C25.2501 30.6052 25.25 30.2935 25.25 30.03V29C25.25 28.9891 25.25 28.9781 25.25 28.9672C25.25 28.746 25.2499 28.5219 25.2702 28.3391C25.2909 28.1527 25.3463 27.843 25.5947 27.5947C25.843 27.3463 26.1527 27.2909 26.3391 27.2702C26.5219 27.2499 26.746 27.25 26.9672 27.25Z" fill="white"/>
<path fill-rule="evenodd" clip-rule="evenodd" d="M38.2566 26.5589C38.5003 26.8939 38.4262 27.3629 38.0912 27.6065C35.6751 29.3637 32.9146 30.4089 30.0938 30.7641C29.6828 30.8159 29.3077 30.5247 29.256 30.1137C29.2042 29.7027 29.4954 29.3276 29.9064 29.2759C32.4856 28.9511 35.0051 27.9962 37.209 26.3934C37.5439 26.1498 38.013 26.2239 38.2566 26.5589Z" fill="white"/>
<path fill-rule="evenodd" clip-rule="evenodd" d="M18.0012 26.8464C18.2351 26.5046 18.7019 26.4171 19.0437 26.6511C21.1926 28.1219 23.6158 29.0083 26.0835 29.2847C26.4952 29.3307 26.7915 29.7018 26.7454 30.1135C26.6993 30.5251 26.3283 30.8214 25.9166 30.7753C23.2043 30.4716 20.5476 29.4981 18.1965 27.8889C17.8546 27.655 17.7672 27.1882 18.0012 26.8464Z" fill="white"/>
</svg>
